# xmcd
#
# Track frame offsets:
#	150
#	17323
#	41234
#	54830
#	71115
#	81588
#	93620
#	106963
#	121929
#	135834
#	151417
#	175160
#	184816
#	196456
#	213454
#	223709
#	237702
#	249338
#	262432
#	271452
#	288100
#
# Disc length: 4064 seconds
#
# Revision: 1
# Processed by: cddbd v1.5.2PL0 Copyright (c) Steve Scherf et al.
# Submitted via: audiograbber 1.83.01
#
DISCID=3d0fde15
DTITLE=Various Artist - Classic Appalachian Blues From Smithsonian Folkways
DYEAR=2010
DGENRE=Blues
TTITLE0=Sticks McGhee - My Baby's Gone
TTITLE1=Big Chief Ellis with Cephas and Wiggins - Louise Blues
TTITLE2=Doc Watson - Sitting on Top of the World
TTITLE3=John Jackson - Railroad Bill
TTITLE4=Bill Williams - Don't Let Your Deal Go Down
TTITLE5=Pink Anderson - You Don't Know My Mind
TTITLE6=J. C. Burris - Blues Around My Bed
TTITLE7=Reverend Gary Davis - Hesitation Blues
TTITLE8=Brownie McGhee - Pawn Shop Blues
TTITLE9=Archie Edwards - The Road is Rough and Rocky 
TTITLE10=Carl Martin, Ted Bogan and Tommy Armstrong - Hoodoo Blues 
TTITLE11=Lesley Riddle - Red River Blues
TTITLE12=Sam Jackson - Walking Cane Peg Leg
TTITLE13=Etta Baker - One Dime Blues
TTITLE14=Roscoe Holcomb - Mississippi Heavy Water Blues
TTITLE15=Josh White - Outskirts of Town
TTITLE16=Baby Tate - See What You Done Done
TTITLE17=Marvin and Turner Foddrell - I Got a Woman
TTITLE18=John Tinsley - Girl Dressed in Green
TTITLE19=E.C. Ball - Blues in the Morning
TTITLE20=Sticks McGhee - Wine Blues (Drinkin' Wine Spo-Dee-O-Dee)
EXTD=
EXTT0=
EXTT1=
EXTT2=
EXTT3=
EXTT4=
EXTT5=
EXTT6=
EXTT7=
EXTT8=
EXTT9=
EXTT10=
EXTT11=
EXTT12=
EXTT13=
EXTT14=
EXTT15=
EXTT16=
EXTT17=
EXTT18=
EXTT19=
EXTT20=
PLAYORDER=
